<svg width="32" height="32" viewBox="0 0 32 32" fill="none" xmlns="http://www.w3.org/2000/svg">
  <rect width="32" height="32" rx="8" fill="url(#gradient)"/>
  <path d="M16 6C13.5 6 11.5 8 11.5 10.5V12H9C8.5 12 8 12.5 8 13V25C8 25.5 8.5 26 9 26H23C23.5 26 24 25.5 24 25V13C24 12.5 23.5 12 23 12H20.5V10.5C20.5 8 18.5 6 16 6Z" fill="white"/>
  <circle cx="16" cy="18" r="3" fill="url(#gradient)"/>
  <path d="M14 10.5C14 9.5 14.5 9 16 9C17.5 9 18 9.5 18 10.5V12H14V10.5Z" fill="white"/>
  <defs>
    <linearGradient id="gradient" x1="0" y1="0" x2="32" y2="32" gradientUnits="userSpaceOnUse">
      <stop stop-color="#22c55e"/>
      <stop offset="0.5" stop-color="#3b82f6"/>
      <stop offset="1" stop-color="#f97316"/>
    </linearGradient>
  </defs>
</svg>